<?xml version="1.0" encoding="utf-8"?>
<!-- Generator: Adobe Illustrator 21.0.0, SVG Export Plug-In . SVG Version: 6.00 Build 0)  -->
<svg version="1.0" id="图层_1" xmlns="http://www.w3.org/2000/svg" xmlns:xlink="http://www.w3.org/1999/xlink" x="0px" y="0px"
	 width="100px" height="100px" viewBox="0 0 100 100" style="enable-background:new 0 0 100 100;" xml:space="preserve">
<linearGradient id="SVGID_1_" gradientUnits="userSpaceOnUse" x1="50" y1="0" x2="50" y2="100">
	<stop  offset="0" style="stop-color:#F2FBFF"/>
	<stop  offset="0.3903" style="stop-color:#E9F8FF"/>
	<stop  offset="0.9987" style="stop-color:#D1F1FF"/>
</linearGradient>
<rect style="fill:url(#SVGID_1_);" width="100" height="100"/>
<g>
	<ellipse style="fill:#0076FF;" cx="22.9" cy="36" rx="7.1" ry="7.3"/>
	<path style="fill:#0076FF;" d="M49.6,33.6c-16.1,0-29.1,20.4-29.1,31.7c0,16.6,13,20.9,29.1,20.9c16.1,0,29.2-4.3,29.1-20.9
		C78.7,53.4,65.7,33.6,49.6,33.6z M46.8,74.9h-6.4v-2.7c-0.9,1.2-1.7,1.9-2.5,2.3c-1,0.6-2.1,0.8-3.3,0.8c-2.4,0-4.2-1-5.6-2.9
		c-1.2-1.9-1.9-4.2-1.9-7c0-3.1,0.7-5.4,2.2-7.1c1.4-1.6,3.2-2.4,5.4-2.4c1.1,0,2,0.2,2.9,0.6c0.9,0.3,1.7,0.9,2.3,1.7v-8.9h6.9
		V74.9z M69.9,74.8L69.9,74.8l-6.4,0.1v-3c-1,1.2-1.9,2.2-2.9,2.7s-2.2,0.7-3.6,0.7c-1.9,0-3.4-0.6-4.5-1.7c-1.1-1.2-1.6-3-1.6-5.4
		V56.4h6.9v10.1c0,1.2,0.2,2,0.7,2.5c0.4,0.5,1,0.7,1.7,0.7c0.8,0,1.5-0.3,2-1c0.5-0.7,0.7-1.8,0.7-3.5v-8.9h6.9V74.8z"/>
	<path style="fill:#0076FF;" d="M36.9,61.2c-0.7,0-1.4,0.2-2,1c-0.6,0.7-0.8,1.9-0.8,3.5c0,1.5,0.2,2.6,0.8,3.3
		c0.6,0.7,1.2,1.1,2.1,1.1s1.6-0.3,2.2-1.1c0.6-0.7,0.9-1.9,0.9-3.5c0-1.4-0.3-2.5-0.9-3.2C38.5,61.6,37.8,61.2,36.9,61.2z"/>
	<ellipse style="fill:#0076FF;" cx="38.9" cy="22.5" rx="8.2" ry="8.5"/>
	<ellipse style="fill:#0076FF;" cx="60.5" cy="23" rx="7.9" ry="8.1"/>
	<ellipse style="fill:#0076FF;" cx="76.1" cy="35.2" rx="7.1" ry="7.3"/>
</g>
</svg>
