<?xml version="1.0" encoding="utf-8"?>
<!-- Generator: Adobe Illustrator 21.0.0, SVG Export Plug-In . SVG Version: 6.00 Build 0)  -->
<svg version="1.0" xmlns="http://www.w3.org/2000/svg" xmlns:xlink="http://www.w3.org/1999/xlink" x="0px" y="0px"
	 width="500px" height="120px" viewBox="0 0 500 120" style="enable-background:new 0 0 500 120;" xml:space="preserve">
<ellipse style="fill:#0076FF;" cx="222.4" cy="42.1" rx="8.5" ry="8.8"/>
<path style="fill:#0076FF;" d="M254.6,102.6c-19.4,0-35.1-5.2-35.1-25.2c0-13.6,15.7-38.2,35.1-38.2
	c19.4,0,35.1,23.9,35.1,38.2C289.8,97.4,274,102.6,254.6,102.6z M251.3,58.2H243v10.7c-0.8-0.9-1.7-1.6-2.8-2s-2.2-0.7-3.5-0.7
	c-2.6,0-4.8,1-6.5,2.9c-1.7,2-2.6,4.8-2.6,8.5c0,3.3,0.8,6.1,2.3,8.4c1.6,2.3,3.8,3.5,6.7,3.5c1.5,0,2.8-0.3,4-1
	c0.9-0.5,1.9-1.4,3-2.8v3.3h7.7V58.2z M243.1,77.7c0,1.9-0.4,3.3-1.1,4.2c-0.7,0.9-1.6,1.3-2.6,1.3c-1,0-1.8-0.4-2.5-1.3s-1-2.2-1-4
	c0-1.9,0.3-3.3,1-4.2s1.5-1.2,2.4-1.2c1.1,0,2,0.4,2.7,1.3S243.1,76,243.1,77.7z M279.1,88.9V66.7h-8.3v10.7c0,2-0.3,3.4-0.9,4.2
	c-0.6,0.8-1.4,1.2-2.4,1.2c-0.9,0-1.6-0.3-2.1-0.9c-0.5-0.6-0.8-1.6-0.8-3V66.7h-8.3v14.2c0,2.9,0.6,5.1,1.9,6.5
	c1.3,1.4,3.1,2.1,5.4,2.1c1.7,0,3.1-0.3,4.3-0.9c1.2-0.6,2.3-1.7,3.5-3.2v3.6H279.1z"/>
<ellipse style="fill:#0076FF;" cx="241.7" cy="25.9" rx="9.9" ry="10.3"/>
<ellipse style="fill:#0076FF;" cx="267.7" cy="26.4" rx="9.5" ry="9.8"/>
<ellipse style="fill:#0076FF;" cx="286.6" cy="41.1" rx="8.5" ry="8.8"/>
<path style="fill:#F20000;" d="M125.1,53.8h21.5c3.6,0,6.3,0.9,8.3,2.7s2.9,4,2.9,6.6c0,2.2-0.7,4.1-2.1,5.7
	c-0.9,1-2.3,1.9-4,2.5c2.7,0.6,4.6,1.7,5.9,3.3s1.9,3.5,1.9,5.9c0,1.9-0.4,3.7-1.3,5.2s-2.1,2.8-3.7,3.7c-1,0.6-2.4,1-4.4,1.2
	c-2.6,0.3-4.3,0.5-5.2,0.5h-19.9V53.8z M136.7,68.4h5c1.8,0,3-0.3,3.7-0.9s1.1-1.5,1.1-2.7c0-1.1-0.4-1.9-1.1-2.5s-1.9-0.9-3.7-0.9
	h-5.1V68.4z M136.7,83h5.9c2,0,3.4-0.4,4.2-1.1s1.2-1.6,1.2-2.8c0-1.1-0.4-2-1.2-2.7s-2.2-1-4.2-1h-5.8V83z M174.3,72.8l-9.9-1
	c0.4-1.7,0.9-3.1,1.6-4.1s1.7-1.8,3-2.6c0.9-0.5,2.3-0.9,3.9-1.2s3.5-0.4,5.4-0.4c3.1,0,5.6,0.2,7.5,0.5s3.4,1.1,4.7,2.2
	c0.9,0.8,1.6,1.8,2.1,3.2s0.8,2.7,0.8,4v11.9c0,1.3,0.1,2.3,0.2,3s0.5,1.6,1.1,2.8h-9.7c-0.4-0.7-0.6-1.2-0.8-1.6s-0.2-0.9-0.4-1.7
	c-1.4,1.3-2.7,2.2-4,2.8c-1.8,0.7-4,1.1-6.4,1.1c-3.2,0-5.7-0.7-7.3-2.2s-2.5-3.3-2.5-5.5c0-2,0.6-3.7,1.8-5.1s3.4-2.3,6.7-2.9
	c3.9-0.8,6.4-1.3,7.5-1.6s2.4-0.7,3.7-1.2c0-1.3-0.3-2.2-0.8-2.7s-1.4-0.8-2.8-0.8c-1.7,0-3,0.3-3.8,0.8
	C175.2,70.8,174.7,71.6,174.3,72.8z M183.2,78.2c-1.4,0.5-2.9,1-4.4,1.3c-2.1,0.6-3.4,1.1-4,1.7c-0.6,0.6-0.9,1.2-0.9,1.9
	c0,0.8,0.3,1.5,0.9,2s1.4,0.8,2.5,0.8c1.2,0,2.2-0.3,3.2-0.8s1.7-1.2,2.1-2s0.6-1.8,0.6-3.1V78.2z M199.9,53.8h10.3v7h-10.3V53.8z
	 M199.9,64h10.3v27h-10.3V64z"/>
<path style="fill:#F20000;" d="M337.4,51.9v8h-15.3l-0.8,3.3H335v29.7H300V63.2h12.6l0.8-3.3h-15.4v-8H337.4z
	 M308.2,70.8v2.5h18.5v-2.5H308.2z M308.2,80.9v2.8h18.5v-2.8H308.2z M366.2,69.6v-1.3h-5.2v1.3H366.2z M366.2,62.7v-1.3h-5.2v1.3
	H366.2z M359.8,79.8c1.8,0.9,3.5,1.6,5.2,2.1c1-0.5,2-1.3,3.1-2.1H359.8z M353.5,62.7v-1.3h-3v1.3H353.5z M376.7,79.8
	c-1.2,1.6-2.5,3.1-3.8,4.3c2,0.4,3.9,0.8,5.9,1l-1.8,7.4c-3.9-0.7-7.9-1.8-12-3.3c-3.5,1.4-7.6,2.5-12.3,3.1l-3.1-7.1
	c2.3-0.2,4.4-0.4,6.2-0.7c-1.4-1-2.7-1.9-3.9-2.8l2-2h-2.1v-5.6h24.9V79.8z M378.3,61.2h-4.6v1.5h4.3v5.6h-4.3v4.9h-20.2v-4.9h-3
	v0.3c-0.1,4.2-0.4,8-0.8,11.6c-0.7,4.5-1.9,8.5-3.6,12.1l-6.7-4.4c1.6-2.7,2.7-5.6,3.3-8.5c0.4-2.7,0.7-6.3,0.7-10.8V54.5l13.8-0.2
	v-3h8v3h13.1V61.2z"/>
<path style="fill:#0076FF;" d="M62.9,60.9H51.8c-1.5,2.2-3,4.2-4.4,5.9v3l3.4-4.1c3.1,2.2,5.2,3.9,6.4,5.2
	c1.6,1.4,3.9,3.7,6.7,6.7L58,84c-3-3.6-5.1-6.1-6.6-7.5c-0.9-0.9-2.2-2.1-4.1-3.8v19.5H39V75.2c-3,2.5-6.5,5.2-10.5,8l-5.6-7.1
	c5.4-3.2,9.4-6.1,12.1-8.7c1.8-1.5,3.9-3.7,6.4-6.6H24.1v-8h38.9V60.9z M92.2,83.2l-3.4-3.4l3.9-1.8h-7.9c-1.1,2-2.5,4-4.1,6.1
	C83.5,83.8,87.3,83.6,92.2,83.2z M90.5,62.4c-1.9-1.2-3.5-2.4-4.9-3.6c-1.5,1.3-3.2,2.5-5.1,3.6H90.5z M103.6,78h-6.6
	c3.7,3.5,6.7,6.9,9,10.2l-6.1,4.4c-0.8-1.1-1.6-2.2-2.6-3.3c-9.5,1-15.8,1.7-18.9,2.1c-2.6,0.3-5.2,0.7-7.7,1.1l-2.5-8.4
	c1.8-0.7,3.4-1.9,5.1-3.8c0.7-0.8,1.3-1.6,2-2.5h-8v-7.5h36.3V78z M72.8,66.3c-1.6,0.7-3.3,1.3-4.9,1.8l-2.8-7.1
	c8.2-3.1,13.9-6.2,17.1-9.5h7.1c2.8,3.2,8.4,6.2,16.7,9l-3.4,7.4c-1.4-0.5-2.8-1.1-4.1-1.6v3.4H72.8V66.3z"/>
<path style="fill:#0076FF;" d="M425.3,81.9c-1.3-2-2.7-4-4.1-6.2c-0.8,1.1-1.5,2.1-2.3,3c-1.1,1.4-2.3,2.8-3.6,4.1
	C417.8,82.5,421.2,82.2,425.3,81.9z M399.9,83.7c4-1.1,8.1-4,12.3-8.9c4-4.7,7.2-9.7,9.4-15.1l6.6,3.4c-1.6,3.9-3.7,7.8-6.2,11.6
	l6.6-1.6c4.4,5.8,7.7,11.2,9.8,16.1l-7.2,3.3c-0.5-1.3-1.3-2.7-2.1-4.3c-7.5,1.1-13.2,1.9-16.9,2.5c-2.3,0.3-5.2,0.8-8.7,1.5
	L399.9,83.7z M421,54.8c-2.6,6-4.9,10.2-6.7,12.6c-3.5,4.2-6.8,7.6-9.8,10.3l-5.6-5.6c4.3-3.8,7.3-7.1,9.2-9.8
	c2.1-3.1,4-6.7,5.9-10.8L421,54.8z"/>
<path style="fill:#0076FF;" d="M453.7,48.7c-4.5,0-8,1.3-10.6,3.8c-2.7,2.6-4,6.1-4,10.6h6.9c0-2.6,0.5-4.6,1.5-6
	c1.2-1.7,3-2.5,5.7-2.5c2.1,0,3.7,0.5,4.9,1.7c1.1,1.2,1.7,2.7,1.7,4.7c0,1.5-0.5,3-1.6,4.3l-0.7,0.9c-4,3.5-6.3,6.1-7.1,7.7
	c-0.9,1.6-1.2,3.6-1.2,6v0.9h7V80c0-1.5,0.3-2.7,0.9-4c0.5-1.1,1.3-2.1,2.4-3c2.9-2.6,4.7-4.2,5.2-4.8c1.5-1.9,2.3-4.4,2.3-7.5
	c0-3.7-1.2-6.6-3.6-8.8C460.8,49.8,457.6,48.7,453.7,48.7z M452.6,83.8c-1.3,0-2.4,0.4-3.3,1.3c-0.9,0.9-1.3,1.9-1.3,3.3
	c0,1.3,0.4,2.4,1.3,3.3c0.9,0.9,2,1.3,3.3,1.3c1.3,0,2.4-0.4,3.3-1.3c0.9-0.9,1.4-2,1.4-3.3c0-1.3-0.5-2.4-1.3-3.3
	C455.1,84.2,453.9,83.8,452.6,83.8z"/>
</svg>
